<svg width="734" height="1109" viewBox="0 0 734 1109" fill="none" xmlns="http://www.w3.org/2000/svg">
<rect x="0.5" y="0.5" width="733" height="1108" rx="42.5" fill="#D9D9D9"/>
<rect x="0.5" y="0.5" width="733" height="1108" rx="42.5" fill="#BCE3FF"/>
<rect x="0.5" y="0.5" width="733" height="1108" rx="42.5" stroke="#75BEE9"/>
<rect x="29" y="27" width="676" height="1055" rx="35" stroke="#75BEE9" stroke-width="10"/>
<g clip-path="url(#clip0_3_6)">
<path d="M235.031 395.558C249.51 392.877 258.296 393.896 272.686 396.795C286.004 399.479 293.445 402.264 305.355 408.797C316.882 415.119 322.794 419.937 332.229 429.068C342.304 438.82 347.042 445.363 354.542 457.185C357.099 461.216 359.99 466.591 362.239 470.95C363.364 473.131 364.329 475.061 365.014 476.445C365.356 477.137 365.628 477.694 365.815 478.077C365.885 478.223 365.944 478.343 365.989 478.437H366.277C366.388 478.174 366.57 477.761 366.814 477.226C367.191 476.402 367.725 475.264 368.397 473.883C369.742 471.121 371.64 467.382 373.942 463.227C378.541 454.923 384.761 444.93 391.389 437.745C397.979 430.6 401.592 426.788 404.901 423.775C408.213 420.759 411.219 418.547 416.583 414.6C423.62 409.422 431.066 405.594 436.748 403.061C439.59 401.794 441.994 400.849 443.688 400.222C444.534 399.908 445.204 399.673 445.663 399.517C445.892 399.439 446.069 399.38 446.189 399.341C446.248 399.321 446.294 399.306 446.324 399.296C446.335 399.293 446.344 399.29 446.352 399.287C446.356 399.286 446.361 399.284 446.366 399.282C446.389 399.272 446.422 399.257 446.466 399.238C446.554 399.201 446.686 399.147 446.859 399.079C447.205 398.942 447.718 398.748 448.391 398.517C449.736 398.056 451.719 397.446 454.283 396.849C459.412 395.657 466.864 394.519 476.175 394.726C489.932 395.032 498.482 394.309 511.339 399.29C522.882 403.762 529.252 407.373 538.655 415.444C548.148 423.592 553.124 429.204 558.943 440.307C564.353 450.629 566.742 457.272 567.642 468.921C568.167 475.712 568.087 481.243 567.135 486.621C566.182 492 564.36 497.207 561.422 503.358C555.626 515.491 549.701 521.364 539.049 529.486C527.988 537.92 519.841 539.904 506.792 544.393C499.287 546.977 492.567 548.424 486.134 549.587C479.691 550.751 473.566 551.626 467.19 553.066C456.231 555.543 435.53 559.656 420.367 570.729C413.814 575.514 409.439 580.275 406.283 586.1C403.124 591.932 401.174 598.858 399.514 607.996C397.871 617.039 397.51 624.213 398.401 631.066C399.292 637.922 401.441 644.48 404.844 652.294C408.337 660.313 411.894 666.548 416.374 671.706C420.851 676.859 426.267 680.953 433.498 684.668C448.659 692.459 459.315 693.4 475.317 692.459C482.29 692.048 488.006 690.92 493.249 688.525C498.492 686.131 503.292 682.458 508.416 676.92C513.541 671.381 516.279 666.899 517.646 662.238C519.014 657.57 519.019 652.685 518.608 646.299C518.196 639.913 517.478 634.614 515.602 630.25C513.735 625.907 510.712 622.471 505.643 619.833C500.538 617.177 496.075 616.068 491.988 616.169C487.904 616.27 484.161 617.581 480.5 619.82C478.684 620.93 477.606 621.997 476.935 623.098C476.264 624.2 475.978 625.372 475.801 626.737C475.448 629.466 475.542 632.958 473.664 637.762C471.802 642.525 470.017 645.391 467.821 647.16C465.617 648.936 463.048 649.565 459.733 649.98C452.983 650.825 447.063 647.866 443.681 642.789C442.053 640.346 440.673 638.537 439.827 636.315C438.972 634.07 438.665 631.423 439.081 627.262C439.497 623.103 440.331 619.958 441.749 617.118C443.166 614.283 445.154 611.776 447.843 608.878C450.509 606.005 452.594 603.605 455.248 601.418C457.912 599.222 461.142 597.245 466.117 595.17C471.076 593.103 474.069 592.204 476.83 591.754C479.568 591.308 482.09 591.306 486.025 591.016C496.147 590.27 502.22 591.436 511.737 594.749C521.785 598.247 526.358 603.686 532.539 612.216C538.509 620.455 540.762 626.29 542.501 636.304C544.592 648.337 543.508 655.895 539.601 667.435C537.346 674.098 534.978 679.317 531.812 684C528.647 688.683 524.693 692.813 519.282 697.311C507.204 707.353 497.499 710.205 481.987 712.248C466.284 714.316 457.009 714.002 441.473 711.007C424.893 707.811 415.065 705.035 400.942 695.688C388.127 687.207 379.339 678.104 373.753 671.118C370.961 667.624 368.968 664.659 367.673 662.566C367.026 661.518 366.552 660.689 366.24 660.12C366.205 660.057 366.173 659.995 366.142 659.938C366.123 659.973 366.105 660.011 366.085 660.048C365.797 660.57 365.362 661.331 364.769 662.294C363.583 664.219 361.764 666.953 359.224 670.187C354.145 676.657 346.184 685.141 334.651 693.208C327.598 698.142 323.02 701.257 317.42 703.649C311.82 706.04 305.215 707.702 294.108 709.771C276.378 713.071 266.02 714.319 252.352 712.247C237.435 709.984 228.075 708.04 215.906 698.974C205.681 691.356 200.149 685.278 195.17 673.651C193.935 670.767 192.915 668.702 192.063 666.816C191.215 664.936 190.547 663.26 190.049 661.215C189.056 657.136 188.749 651.621 188.955 640.079C189.178 627.591 194.76 614.72 201.447 608.445C205.314 604.818 208.223 602.01 211.508 599.702C214.803 597.386 218.469 595.579 223.86 593.919C234.555 590.626 241.438 589.963 252.482 591.845C262.83 593.607 269.267 595.501 277.4 602.243C286.065 609.426 291.956 617.209 292.794 626.855C293.659 636.815 289.534 646.533 279.716 649.145C276.746 649.935 274.065 650.158 271.507 649.695C268.946 649.232 266.538 648.087 264.109 646.184C261.364 644.034 259.406 641.697 258.271 639.046C257.135 636.392 256.839 633.453 257.364 630.125C257.951 626.397 256.127 622.992 253.069 620.405C250.011 617.819 245.766 616.096 241.666 615.755C236.754 615.345 232.56 615.662 228.963 617.027C225.376 618.388 222.351 620.802 219.791 624.645C216.917 628.958 215.092 632.419 214.078 636.324C213.064 640.232 212.855 644.614 213.266 650.781C213.676 656.939 214.623 661.729 216.466 666.049C218.308 670.37 221.057 674.248 225.106 678.567C234.672 688.774 244.222 690.73 258.232 692.461C266.348 693.463 273.056 693.46 279.491 692.188C285.926 690.916 292.112 688.372 299.182 684.266C311.408 677.164 317.153 670.353 324.166 658.027C327.903 651.46 330.415 645.9 331.966 640.105C333.517 634.311 334.114 628.262 334.002 620.712C333.875 612.153 333.057 605.169 330.944 598.647C328.831 592.128 325.42 586.048 320.081 579.311C310.69 567.461 295.966 562.129 286.936 560.076C280.677 558.652 275.789 557.088 270.799 555.583C265.81 554.077 260.707 552.627 253.989 551.42C237.9 548.53 227.161 545.638 216.008 541.504C207.355 538.297 201.4 535.778 196.288 532.412C191.168 529.042 186.913 524.837 181.63 518.284C176.033 511.342 172.023 505.133 169.346 498.416C166.669 491.698 165.333 484.492 165.056 475.563C164.797 467.233 165.417 460.485 167.3 454.053C169.183 447.621 172.322 441.527 177.076 434.494C184.925 422.883 189.901 415.86 202.35 408.8C214.29 402.029 221.473 398.068 235.031 395.558ZM485.642 418.643C474.082 416.527 467.09 417.191 455.561 419.468C444.623 421.629 438.502 423.906 428.777 429.365C418.3 435.246 413.198 440.075 404.877 448.746C395.781 458.226 391.563 464.523 385.098 475.963C379.4 486.045 373.177 503.101 373.148 503.179C373.148 503.179 370.951 514.449 365.731 514.313C360.598 514.179 359.983 508.863 358.314 504.004C353.781 490.808 350.649 481.367 342.655 468.952C336.638 459.608 332.825 454.55 324.937 446.684C316.296 438.068 311.095 433.23 300.213 427.715C288.813 421.939 281.666 418.643 268.896 418.231C256.122 417.818 247.266 416.836 234.694 421.53C222.565 426.058 215.412 430.246 207.498 440.499C199.067 451.421 196.038 460.1 195.96 473.901C195.893 485.78 198.227 492.915 204.201 503.179C211.837 516.295 220.05 522.612 233.458 528.746C247.88 535.344 261.79 536.388 279.197 541.118C293.62 545.035 302.453 545.488 316.695 551.427C326.585 555.551 332.354 558.437 341.831 564.623C351.458 570.906 355.429 576.581 361.61 585.654C363.958 589.099 366.125 595.905 366.143 595.963C366.158 595.916 367.944 590.172 370.264 586.066C376.872 574.369 383.437 568.586 394.988 561.736C406.113 555.138 413.667 552.168 426.305 547.715C440.699 542.643 449.542 542.427 464.215 538.231C478.845 534.046 487.29 532.458 501.301 526.272C509.422 522.686 521.904 515.138 529.733 499.88C537.179 485.368 539.721 467.078 530.557 449.571C526.025 440.911 520.668 435.963 512.426 429.365C503.63 422.322 496.723 420.672 485.642 418.643Z" fill="#75BEE9"/>
<path d="M303.921 488.746C294.444 487.922 284.311 486.174 278.785 494.52C276.134 498.525 274.765 501.81 275.901 506.478C276.778 510.081 278.29 512.095 281.258 514.313C285.202 517.262 288.794 517.767 293.62 516.788C296.583 516.187 298.152 515.138 300.625 513.901C305.681 511.372 309.43 511.617 315.047 512.252C323.215 513.174 327.654 515.82 334.414 520.499C342.669 526.212 345.466 531.714 351.309 539.88C355.808 546.168 357.518 552.283 361.61 556.788C365.731 561.324 366.967 561.736 369.44 558.025C373.56 551.839 375.389 546.589 380.153 539.88C384.653 533.545 387.074 529.733 392.927 524.623C399.187 519.157 403.028 515.617 411.058 513.489C418.214 511.592 422.661 512.625 430.013 513.489C436.063 514.2 439.385 518.402 445.26 516.788C449.915 515.508 452.955 513.668 455.149 509.365C457.416 504.918 457.369 501.052 455.149 496.581C452.234 490.711 447.32 489.571 440.315 488.746C431.25 487.679 425.834 489.384 417.239 492.458C409.232 495.322 405.32 498.402 398.284 503.179C391.277 507.939 387.596 511.021 381.39 516.788C374.797 522.913 365.731 533.695 365.731 533.695C365.731 533.695 360.73 528.146 357.49 524.623C352.71 519.426 350.363 516.165 345.128 511.427C338.205 505.16 333.859 501.862 325.761 497.406C317.669 492.953 313.399 489.571 303.921 488.746Z" fill="#75BEE9"/>
</g>
<circle cx="367" cy="554" r="310.5" stroke="#75BEE9" stroke-width="5"/>
<circle cx="666" cy="1045" r="18" transform="rotate(-180 666 1045)" fill="#75BEE9"/>
<circle cx="666" cy="964" r="10" transform="rotate(-180 666 964)" fill="#75BEE9"/>
<circle cx="665.5" cy="1000.5" r="14.5" transform="rotate(-180 665.5 1000.5)" fill="#75BEE9"/>
<circle cx="63" cy="63" r="18" fill="#75BEE9"/>
<circle cx="63" cy="144" r="10" fill="#75BEE9"/>
<circle cx="63.5" cy="107.5" r="14.5" fill="#75BEE9"/>
<path d="M515.787 79.25L552.037 127.537L588.287 79.25L564.594 134.787L624.537 142.037L564.594 149.287L588.287 204.824L552.037 156.537L515.787 204.824L539.479 149.287L479.537 142.037L539.479 134.787L515.787 79.25Z" fill="#75BEE9"/>
<path d="M105.627 256.214L121.469 281.669L141.49 259.352L127.367 285.798L156.704 291.979L126.739 292.971L136.056 321.468L120.214 296.014L100.193 318.331L114.316 291.884L84.9783 285.704L114.943 284.712L105.627 256.214Z" fill="#75BEE9"/>
<path d="M589.006 820.644L596.873 846.542L619.546 831.759L601.051 851.521L625.19 863.765L598.828 857.629L600.293 884.656L592.427 858.758L569.753 873.54L588.249 853.779L564.11 841.534L590.472 847.671L589.006 820.644Z" fill="#75BEE9"/>
<path d="M291.498 331.851L305.61 324.693L294.798 313.14L308.053 321.782L312.652 306.641L311.795 322.442L327.207 318.854L313.095 326.012L323.907 337.566L310.652 328.923L306.053 344.064L306.91 328.264L291.498 331.851Z" fill="#75BEE9"/>
<path d="M67.2374 889.043L99.561 906.305L107.115 870.447L108.328 907.072L143.158 895.685L112.047 915.047L139.323 939.517L106.999 922.256L99.4452 958.113L98.2326 921.489L63.4025 932.875L94.5135 913.513L67.2374 889.043Z" fill="#75BEE9"/>
<defs>
<clipPath id="clip0_3_6">
<rect width="403" height="320" fill="white" transform="translate(165 394)"/>
</clipPath>
</defs>
</svg>
