<svg width="489" height="388" viewBox="0 0 489 388" fill="none" xmlns="http://www.w3.org/2000/svg">
<path d="M84.9761 1.88854C102.545 -1.36191 113.205 -0.126613 130.666 3.38951C146.826 6.6437 155.855 10.0206 170.307 17.9413C184.294 25.6071 191.467 31.4488 202.915 42.5204C215.14 54.3438 220.89 62.2773 229.99 76.6122C233.093 81.4998 236.601 88.0163 239.33 93.3016C240.695 95.946 241.866 98.286 242.697 99.9647C243.112 100.804 243.442 101.479 243.669 101.943C243.754 102.12 243.825 102.266 243.88 102.38H244.23C244.364 102.061 244.585 101.56 244.881 100.912C245.338 99.9126 245.987 98.5327 246.802 96.8583C248.434 93.509 250.737 88.9753 253.53 83.9374C259.11 73.8693 266.658 61.7523 274.7 53.0409C282.697 44.3772 287.081 39.7556 291.096 36.1024C295.115 32.4458 298.762 29.7633 305.271 24.9774C313.809 18.6994 322.844 14.0576 329.739 10.9862C333.187 9.44999 336.104 8.30477 338.16 7.54381C339.187 7.16345 340 6.87906 340.556 6.68932C340.834 6.59447 341.049 6.52303 341.194 6.47545C341.266 6.45172 341.322 6.43375 341.359 6.42174C341.372 6.41748 341.383 6.41378 341.392 6.411C341.397 6.40894 341.403 6.40673 341.409 6.40416C341.437 6.39215 341.477 6.3739 341.531 6.35143C341.638 6.30627 341.798 6.24083 342.007 6.15807C342.427 5.99232 343.05 5.75724 343.866 5.47741C345.498 4.91763 347.905 4.17778 351.016 3.45494C357.239 2.00919 366.282 0.628712 377.579 0.879749C394.272 1.2507 404.647 0.374811 420.248 6.41393C434.254 11.836 441.983 16.2151 453.393 26.0008C464.912 35.8798 470.949 42.685 478.01 56.1473C484.575 68.6632 487.473 76.717 488.566 90.8417C489.203 99.0761 489.105 105.782 487.95 112.303C486.794 118.825 484.583 125.139 481.018 132.596C473.985 147.308 466.796 154.429 453.871 164.277C440.449 174.503 430.564 176.908 414.73 182.352C405.624 185.484 397.47 187.239 389.664 188.649C381.846 190.061 374.414 191.121 366.677 192.868C353.38 195.871 328.261 200.858 309.862 214.284C301.911 220.086 296.602 225.858 292.773 232.921C288.939 239.993 286.574 248.39 284.559 259.47C282.565 270.435 282.127 279.133 283.209 287.443C284.29 295.755 286.897 303.707 291.026 313.181C295.265 322.905 299.581 330.465 305.017 336.718C310.45 342.966 317.021 347.93 325.795 352.435C344.192 361.882 357.122 363.023 376.538 361.881C385 361.383 391.935 360.016 398.297 357.112C404.659 354.209 410.483 349.755 416.701 343.04C422.919 336.324 426.242 330.89 427.9 325.239C429.561 319.579 429.567 313.655 429.068 305.912C428.568 298.17 427.697 291.744 425.42 286.453C423.155 281.187 419.487 277.021 413.336 273.823C407.142 270.602 401.726 269.257 396.767 269.38C391.811 269.502 387.27 271.092 382.828 273.807C380.624 275.153 379.316 276.446 378.502 277.781C377.687 279.117 377.34 280.538 377.126 282.194C376.697 285.502 376.812 289.737 374.533 295.562C372.273 301.337 370.108 304.811 367.443 306.957C364.768 309.11 361.651 309.873 357.629 310.376C349.439 311.4 342.255 307.813 338.151 301.657C336.176 298.695 334.501 296.501 333.475 293.807C332.438 291.085 332.065 287.875 332.57 282.83C333.074 277.787 334.086 273.974 335.807 270.531C337.526 267.093 339.939 264.053 343.201 260.54C346.436 257.056 348.966 254.146 352.187 251.494C355.419 248.832 359.339 246.434 365.375 243.919C371.392 241.412 375.024 240.322 378.374 239.777C381.697 239.236 384.757 239.233 389.531 238.882C401.813 237.977 409.182 239.391 420.731 243.408C432.923 247.649 438.472 254.244 445.972 264.587C453.216 274.577 455.949 281.652 458.06 293.794C460.597 308.383 459.281 317.548 454.541 331.54C451.804 339.619 448.931 345.947 445.09 351.625C441.249 357.303 436.451 362.311 429.886 367.765C415.23 379.94 403.454 383.399 384.632 385.876C365.578 388.383 354.323 388.002 335.472 384.371C315.354 380.496 303.429 377.13 286.292 365.797C270.742 355.514 260.079 344.476 253.301 336.005C249.913 331.769 247.495 328.174 245.923 325.636C245.138 324.366 244.563 323.361 244.184 322.671C244.142 322.594 244.103 322.519 244.066 322.45C244.043 322.492 244.021 322.538 243.996 322.583C243.647 323.216 243.119 324.139 242.4 325.307C240.961 327.641 238.753 330.955 235.671 334.877C229.508 342.722 219.848 353.008 205.854 362.79C197.296 368.772 191.741 372.549 184.946 375.449C178.151 378.349 170.137 380.364 156.659 382.872C135.146 386.874 122.578 388.387 105.993 385.874C87.8925 383.131 76.5357 380.774 61.7691 369.781C49.3619 360.544 42.6501 353.175 36.608 339.077C35.1092 335.58 33.8715 333.076 32.8384 330.789C31.809 328.51 30.9982 326.478 30.3941 323.998C29.1894 319.052 28.817 312.366 29.0669 298.371C29.3374 283.229 36.1106 267.623 44.2251 260.015C48.9166 255.617 52.447 252.212 56.4322 249.414C60.4312 246.606 64.8793 244.415 71.4205 242.402C84.3979 238.409 92.7495 237.605 106.151 239.887C118.707 242.024 126.517 244.32 136.386 252.495C146.9 261.204 154.048 270.641 155.065 282.337C156.115 294.413 151.109 306.196 139.196 309.363C135.593 310.321 132.339 310.591 129.235 310.03C126.128 309.469 123.206 308.08 120.259 305.773C116.928 303.166 114.552 300.333 113.175 297.118C111.797 293.9 111.437 290.337 112.074 286.302C112.787 281.781 110.573 277.653 106.863 274.516C103.152 271.38 98.0011 269.292 93.0259 268.878C87.0659 268.381 81.9772 268.765 77.6128 270.42C73.2597 272.07 69.5891 274.998 66.483 279.657C62.9966 284.887 60.7812 289.083 59.5513 293.818C58.3207 298.556 58.0676 303.87 58.566 311.347C59.0637 318.813 60.2128 324.621 62.4488 329.86C64.6843 335.099 68.0201 339.801 72.9322 345.038C84.5399 357.414 96.1274 359.785 113.128 361.884C122.976 363.099 131.115 363.095 138.923 361.553C146.731 360.011 154.238 356.926 162.816 351.947C177.652 343.336 184.622 335.078 193.132 320.133C197.667 312.17 200.714 305.429 202.596 298.402C204.478 291.377 205.203 284.043 205.067 274.888C204.913 264.511 203.92 256.042 201.356 248.135C198.793 240.23 194.653 232.858 188.175 224.69C176.78 210.322 158.914 203.857 147.957 201.367C140.362 199.641 134.431 197.744 128.377 195.919C122.323 194.093 116.131 192.335 107.979 190.872C88.4564 187.368 75.4263 183.861 61.8931 178.848C51.3933 174.96 44.168 171.906 37.9644 167.825C31.7526 163.739 26.589 158.64 20.1783 150.694C13.387 142.277 8.52194 134.749 5.27397 126.605C2.0249 118.459 0.404325 109.722 0.0679146 98.8954C-0.245923 88.7949 0.505533 80.6136 2.79057 72.8143C5.07549 65.0156 8.885 57.6259 14.6529 49.0995C24.1768 35.0207 30.215 26.5051 45.3208 17.9452C59.809 9.7352 68.5244 4.93238 84.9761 1.88854ZM389.067 29.8797C375.04 27.314 366.556 28.1186 352.567 30.8797C339.294 33.4996 331.867 36.2607 320.067 42.8797C307.354 50.0111 301.163 55.8657 291.067 66.3797C280.03 77.8736 274.912 85.5095 267.067 99.3797C260.153 111.604 252.602 132.285 252.567 132.38C252.567 132.38 249.901 146.045 243.567 145.88C237.339 145.717 236.592 139.271 234.567 133.38C229.067 117.38 225.266 105.932 215.567 90.8797C208.266 79.5497 203.639 73.4172 194.067 63.8797C183.582 53.4328 177.272 47.5663 164.067 40.8797C150.235 33.8756 141.563 29.8796 126.067 29.3797C110.567 28.8797 99.8217 27.6885 84.5669 33.3797C69.8493 38.8706 61.1702 43.9486 51.5669 56.3797C41.3365 69.6228 37.6617 80.1457 37.5669 96.8797C37.4854 111.283 40.3171 119.935 47.5669 132.38C56.8316 148.283 66.7979 155.942 83.0669 163.38C100.567 171.38 117.445 172.646 138.567 178.38C156.067 183.13 166.785 183.679 184.067 190.88C196.067 195.88 203.067 199.38 214.567 206.88C226.248 214.498 231.067 221.38 238.567 232.38C241.415 236.557 244.045 244.81 244.067 244.88C244.085 244.823 246.252 237.859 249.067 232.88C257.085 218.697 265.051 211.686 279.067 203.38C292.567 195.38 301.732 191.779 317.067 186.38C334.533 180.23 345.263 179.968 363.067 174.88C380.819 169.806 391.067 167.88 408.067 160.38C417.921 156.032 433.067 146.88 442.567 128.38C451.602 110.784 454.686 88.6073 443.567 67.3797C438.067 56.88 431.567 50.8796 421.567 42.8797C410.893 34.3405 402.513 32.3395 389.067 29.8797Z" fill="#75BEE9"/>
<path d="M168.567 114.88C157.067 113.88 144.772 111.761 138.067 121.88C134.85 126.736 133.189 130.72 134.567 136.38C135.631 140.748 137.466 143.19 141.067 145.88C145.853 149.455 150.212 150.067 156.067 148.88C159.663 148.152 161.567 146.88 164.567 145.38C170.702 142.313 175.251 142.611 182.067 143.38C191.978 144.499 197.364 147.707 205.567 153.38C215.584 160.307 218.977 166.978 226.067 176.88C231.526 184.504 233.601 191.918 238.567 197.38C243.567 202.88 245.067 203.38 248.067 198.88C253.067 191.38 255.286 185.014 261.067 176.88C266.527 169.198 269.465 164.576 276.567 158.38C284.163 151.753 288.823 147.461 298.567 144.88C307.25 142.58 312.646 143.833 321.567 144.88C328.908 145.742 332.939 150.838 340.067 148.88C345.716 147.329 349.405 145.098 352.067 139.88C354.818 134.488 354.761 129.801 352.067 124.38C348.53 117.262 342.567 115.88 334.067 114.88C323.068 113.586 316.496 115.653 306.067 119.38C296.351 122.853 291.604 126.587 283.067 132.38C274.564 138.151 270.098 141.888 262.567 148.88C254.568 156.307 243.567 169.38 243.567 169.38C243.567 169.38 237.499 162.652 233.567 158.38C227.767 152.079 224.919 148.125 218.567 142.38C210.167 134.782 204.893 130.783 195.067 125.38C185.249 119.981 180.067 115.88 168.567 114.88Z" fill="#75BEE9"/>
</svg>
